<?xml version="1.0" encoding="UTF-8" standalone="no"?>
<!-- Created with Inkscape (http://www.inkscape.org/) -->

<svg
   xmlns:dc="http://purl.org/dc/elements/1.1/"
   xmlns:cc="http://creativecommons.org/ns#"
   xmlns:rdf="http://www.w3.org/1999/02/22-rdf-syntax-ns#"
   xmlns:svg="http://www.w3.org/2000/svg"
   xmlns="http://www.w3.org/2000/svg"
   version="1.1"
   width="242.5"
   height="242.5"
   id="svg2"
   xml:space="preserve"><metadata
     id="metadata8"><rdf:RDF><cc:Work
         rdf:about=""><dc:format>image/svg+xml</dc:format><dc:type
           rdf:resource="http://purl.org/dc/dcmitype/StillImage" /><dc:title></dc:title></cc:Work></rdf:RDF></metadata><defs
     id="defs6" /><g
     transform="matrix(1.25,0,0,-1.25,0,242.5)"
     id="g10"><g
       transform="scale(0.1,0.1)"
       id="g0"><path
         d="m 2.59766,392.0239 1927.56004,0 0,1163.0685 -1927.56004,0 0,-1163.0685 z"
         id="path0"
         style="fill:#ffffff;fill-opacity:1;fill-rule:evenodd;stroke:none" /><path
         d="M 967.793,614.184 C 1052.6,536.91 1166.62,489.793 1290.07,489.793 c 265.75,0 480.6,214.855 480.6,480.598 0,264.799 -214.85,480.599 -480.6,480.599 -123.45,0 -237.47,-47.12 -322.277,-124.39 -97.063,-88.58 -158.316,-214.86 -158.316,-356.209 0,-141.352 61.253,-268.571 158.316,-356.207"
         id="path18"
         style="fill:#f9a91f;fill-opacity:1;fill-rule:evenodd;stroke:none" /><path
         d="m 1706.59,702.762 c 0,8.48 6.6,15.078 16.02,15.078 8.48,0 15.08,-6.598 15.08,-15.078 0,-8.481 -6.6,-16.02 -15.08,-16.02 -9.42,0 -16.02,7.539 -16.02,16.02 z m 16.02,-12.25 c 5.66,0 11.31,5.656 11.31,12.25 0,6.597 -5.65,11.308 -11.31,11.308 -6.59,0 -12.25,-4.711 -12.25,-11.308 0,-6.594 5.66,-12.25 12.25,-12.25 z m -2.82,4.715 -2.83,0 0,14.132 5.65,0 c 0.94,0 2.83,0 3.77,-0.941 0.94,-0.945 1.89,-1.887 1.89,-2.828 0,-1.887 -0.95,-3.77 -2.83,-3.77 l 2.83,-6.593 -3.77,0 -1.89,5.652 -2.82,0 0,-5.652 z m 0,8.476 1.88,0 c 0.94,0 1.88,0 1.88,0 0.95,0 0.95,0.945 0.95,1.887 0,0 0,0.941 -0.95,0.941 0,0 -0.94,0 -1.88,0 l -1.88,0 0,-2.828"
         id="path1"
         style="fill:#f9a91f;fill-opacity:1;fill-rule:evenodd;stroke:none" /><path
         d="m 1123.28,1021.28 c -1.89,16.96 -4.71,33.92 -8.48,50.88 l -294.015,0 c 3.77,16.96 8.481,33.93 14.137,50.89 l 265.738,0 c -5.65,16.96 -12.25,33.93 -19.79,50.89 l -226.159,0 c 8.48,16.96 17.902,33.92 28.269,50.88 l 169.62,0 c -10.37,17.91 -22.61,34.87 -36.75,50.89 l -96.12,0 c 14.137,17.91 31.098,34.87 48.063,50.89 -84.813,77.27 -197.895,124.39 -322.285,124.39 -265.742,0 -480.598,-215.8 -480.598,-480.599 0,-265.743 214.856,-480.598 480.598,-480.598 124.39,0 237.472,47.117 322.285,124.391 l 0,0 c 16.961,16.019 33.917,32.98 49.007,50.882 l -97.07,0 c -13.191,16.024 -25.441,32.985 -36.75,50.887 l 169.62,0 c 10.37,16.024 19.79,32.985 28.27,50.891 l -226.159,0 c -7.539,16.015 -14.137,32.98 -19.789,50.886 l 265.738,0 c 5.66,16.961 10.37,33.926 14.14,50.883 3.77,16.965 6.59,33.926 8.48,50.891 1.88,16.961 2.83,33.922 2.83,50.887 0,16.961 -0.95,33.929 -2.83,50.889"
         id="path2"
         style="fill:#ed192d;fill-opacity:1;fill-rule:evenodd;stroke:none" /><path
         d="m 1706.59,859.191 c 0,8.485 6.6,15.079 16.02,15.079 8.48,0 15.08,-6.594 15.08,-15.079 0,-8.48 -6.6,-16.015 -15.08,-16.015 -9.42,0 -16.02,7.535 -16.02,16.015 z m 16.02,-12.25 c 5.66,0 11.31,5.657 11.31,12.25 0,6.598 -5.65,11.309 -11.31,11.309 -6.59,0 -12.25,-4.711 -12.25,-11.309 0,-6.593 5.66,-12.25 12.25,-12.25 z m -2.82,4.715 -2.83,0 0,14.133 5.65,0 c 0.94,0 2.83,0 3.77,-0.941 0.94,-0.946 1.89,-1.883 1.89,-2.828 0,-1.887 -0.95,-3.77 -2.83,-3.77 l 2.83,-6.594 -3.77,0 -1.89,5.653 -2.82,0 0,-5.653 z m 0,8.477 1.88,0 c 0.94,0 1.88,0 1.88,0 0.95,0 0.95,0.945 0.95,1.887 0,0 0,0.945 -0.95,0.945 0,0 -0.94,0 -1.88,0 l -1.88,0 0,-2.832"
         id="path3"
         style="fill:#ffffff;fill-opacity:1;fill-rule:evenodd;stroke:none" /><path
         d="m 804.766,831.863 c -16.02,-4.711 -27.328,-6.597 -39.578,-6.597 -24.5,0 -39.579,15.078 -39.579,43.347 0,5.657 0.942,11.313 1.883,17.91 l 2.828,18.844 2.825,16.02 22.621,135.703 49.941,0 -5.656,-30.16 31.101,0 -7.543,-49.942 -31.093,0 -14.137,-81.043 c 0,-2.828 -0.941,-5.652 -0.941,-7.539 0,-10.367 5.652,-15.078 17.902,-15.078 6.598,0 10.367,0.942 16.023,1.887 l -6.597,-43.352"
         id="path26"
         style="fill:#16326c;fill-opacity:1;fill-rule:evenodd;stroke:none" /><path
         d="m 965.906,833.75 c -17.906,-5.652 -35.808,-8.484 -53.711,-8.484 -55.601,0 -88.586,30.156 -88.586,88.586 0,67.847 38.637,118.738 91.411,118.738 42.406,0 69.734,-28.27 69.734,-72.567 0,-14.132 -1.883,-28.269 -6.598,-49.003 l -103.656,0 c 0,-2.825 0,-3.77 0,-5.653 0,-23.558 15.078,-34.867 45.23,-34.867 18.848,0 35.813,3.77 54.661,12.25 l -8.485,-49 z m -31.097,117.793 c 0,3.769 0,7.539 0,9.426 0,16.019 -9.422,25.441 -24.5,25.441 -16.961,0 -28.27,-12.25 -32.985,-34.867 l 57.485,0"
         id="path4"
         style="fill:#16326c;fill-opacity:1;fill-rule:evenodd;stroke:none" /><path
         d="m 406.152,829.039 -51.832,0 30.157,187.521 -66.907,-187.521 -35.808,0 -3.77,186.581 -32.039,-186.581 -49.945,0 40.519,244.071 74.446,0 2.832,-150.778 49.941,150.778 82.93,0 -40.524,-244.071"
         id="path5"
         style="fill:#16326c;fill-opacity:1;fill-rule:evenodd;stroke:none" /><path
         d="m 531.484,917.617 c -5.656,0 -6.597,0.945 -10.367,0.945 -29.211,0 -44.289,-11.312 -44.289,-30.156 0,-13.191 7.539,-20.73 18.844,-20.73 25.445,0 34.871,20.73 35.812,49.941 z m 41.461,-88.578 -45.23,0 0.941,20.731 C 517.348,833.75 502.27,825.266 474,825.266 c -25.445,0 -46.172,22.621 -46.172,54.66 0,9.422 1.883,17.902 3.766,25.441 8.48,31.098 39.582,49.945 86.699,50.887 5.652,0 15.074,0 22.613,-0.942 1.887,6.598 1.887,9.422 1.887,13.192 0,13.195 -10.363,16.965 -34.867,16.965 -15.078,0 -31.098,-2.828 -43.348,-5.657 l -6.598,-2.824 -3.769,0 7.539,44.292 c 24.5,7.54 41.465,10.36 60.312,10.36 45.231,0 68.79,-19.79 68.79,-58.425 0,-9.422 0.941,-16.961 -2.829,-38.637 l -10.363,-70.676 -1.887,-12.246 -1.882,-10.367 0,-6.598 -0.946,-5.652"
         id="path6"
         style="fill:#16326c;fill-opacity:1;fill-rule:evenodd;stroke:none" /><path
         d="m 1216.57,1025.04 c 14.14,0 27.33,-3.76 46.18,-13.19 l 8.48,53.72 c -4.71,1.88 -5.66,1.88 -12.25,4.71 l -21.68,4.71 c -6.59,1.89 -14.13,2.83 -23.56,2.83 -25.44,0 -40.51,0 -56.54,-10.37 -8.48,-4.71 -18.84,-12.25 -31.09,-25.44 l -5.66,1.88 -53.71,-37.69 2.83,20.73 -55.61,0 -31.089,-197.891 51.829,0 18.85,106.484 c 0,0 7.53,15.079 11.31,19.789 9.42,12.25 17.9,12.25 28.26,12.25 1.89,0 3.77,0 3.77,0 -0.94,-11.308 -1.88,-24.5 -1.88,-37.695 0,-65.019 36.75,-105.539 93.29,-105.539 14.14,0 26.39,1.883 45.24,7.535 l 9.42,55.598 c -16.96,-8.481 -31.1,-12.246 -44.3,-12.246 -30.15,0 -48.05,21.672 -48.05,59.363 0,52.774 26.38,90.462 65.96,90.462"
         id="path7"
         style="fill:#16326c;fill-opacity:1;fill-rule:evenodd;stroke:none" /><path
         d="m 1656.65,1073.11 -11.31,-69.74 c -12.25,18.85 -27.33,27.33 -47.12,27.33 -27.33,0 -52.77,-15.08 -68.79,-44.29 l 0,0 -32.98,19.79 2.83,20.73 -55.6,0 -32.04,-197.891 52.77,0 16.96,106.484 c 0,0 13.19,15.079 16.96,19.789 7.55,9.422 16.03,12.25 22.62,12.25 -5.65,-16.96 -9.42,-36.753 -9.42,-58.425 0,-49.946 26.38,-82.926 64.08,-82.926 18.84,0 33.92,6.598 48.06,22.613 l -2.83,-19.785 49.95,0 39.57,244.071 -53.71,0 z m -63.14,-196.954 c -17.9,0 -26.39,12.25 -26.39,38.637 0,38.633 16.02,66.906 40.52,66.906 17.91,0 27.33,-14.137 27.33,-39.578 0,-38.637 -16.96,-65.965 -41.46,-65.965"
         id="path8"
         style="fill:#16326c;fill-opacity:1;fill-rule:evenodd;stroke:none" /><path
         d="m 1353.21,917.617 c -5.65,0 -6.6,0.945 -10.36,0.945 -29.22,0 -44.3,-11.312 -44.3,-30.156 0,-13.191 7.55,-20.73 18.85,-20.73 25.45,0 34.87,20.73 35.81,49.941 z m 41.47,-88.578 -45.23,0 0.93,20.731 c -11.3,-16.02 -26.38,-24.504 -54.65,-24.504 -25.44,0 -48.06,21.675 -48.06,54.66 0.94,47.117 35.81,76.328 92.35,76.328 5.65,0 15.08,0 22.62,-0.942 1.88,6.598 1.88,9.422 1.88,13.192 0,13.195 -10.36,16.965 -34.87,16.965 -15.08,0 -32.04,-2.828 -43.35,-5.657 l -7.53,-2.824 -2.83,0 7.54,44.292 c 24.5,7.54 41.46,10.36 60.31,10.36 45.23,0 68.79,-19.79 68.79,-58.425 0,-9.422 0.94,-16.961 -2.83,-38.637 l -10.36,-70.676 -1.89,-12.246 -1.88,-10.367 -0.94,-6.598 0,-5.652"
         id="path9"
         style="fill:#16326c;fill-opacity:1;fill-rule:evenodd;stroke:none" /><path
         d="m 681.316,984.527 c 10.368,0 24.5,-0.945 39.579,-2.828 l 7.539,46.181 c -15.075,1.88 -34.864,3.76 -47.118,3.76 -57.484,0 -77.269,-31.09 -77.269,-67.847 0,-23.559 11.305,-41.461 38.633,-53.711 21.675,-10.367 25.445,-12.254 25.445,-20.734 0,-12.25 -11.309,-19.789 -32.039,-19.789 -15.078,0 -29.215,2.828 -46.176,7.539 l -5.652,-45.235 0.941,0 9.422,-1.883 c 2.828,-0.941 7.539,-1.882 13.195,-1.882 13.192,-1.887 23.559,-1.887 30.153,-1.887 57.484,0 81.984,21.676 81.984,65.961 0,27.332 -13.191,43.351 -39.578,54.66 -21.676,10.367 -24.5,11.309 -24.5,20.73 0,9.426 9.426,16.965 25.441,16.965"
         id="path10"
         style="fill:#16326c;fill-opacity:1;fill-rule:evenodd;stroke:none" /><path
         d="m 1285.36,1080.64 -8.48,-52.76 c -18.84,9.42 -32.04,13.19 -46.17,13.19 -39.58,0 -66.91,-37.7 -66.91,-91.414 0,-36.75 18.85,-59.363 49,-59.363 13.2,0 27.33,3.766 44.29,12.246 l -9.42,-55.598 c -18.85,-4.711 -31.1,-6.597 -46.17,-6.597 -55.61,0 -90.47,39.582 -90.47,104.601 0,87.645 48.06,147.945 116.85,147.945 9.42,0 16.96,-0.94 23.56,-1.88 l 21.67,-5.65 c 6.6,-2.83 7.54,-2.83 12.25,-4.72"
         id="path11"
         style="fill:#ffffff;fill-opacity:1;fill-rule:evenodd;stroke:none" /><path
         d="m 1118.57,1043.89 c -1.89,0.95 -3.77,0.95 -5.66,0.95 -16.96,0 -26.38,-8.48 -42.4,-32.04 l 4.71,30.15 -48.06,0 -31.098,-198.837 51.828,0 c 18.85,121.567 23.56,142.297 49,142.297 0.95,0 0.95,0 3.77,0 4.72,23.56 10.37,41.47 19.79,57.48 l -1.88,0"
         id="path12"
         style="fill:#ffffff;fill-opacity:1;fill-rule:evenodd;stroke:none" /><path
         d="m 817.957,846.941 c -14.133,-4.711 -25.441,-6.597 -37.691,-6.597 -26.387,0 -41.465,15.078 -41.465,43.347 0,5.657 0.941,11.313 1.887,17.907 l 2.824,19.789 2.828,15.078 22.617,135.695 51.828,0 -5.656,-29.21 26.391,0 -7.543,-49.001 -26.383,0 -14.137,-81.984 c 0,-3.77 -0.941,-6.598 -0.941,-8.481 0,-10.367 5.656,-15.078 17.902,-15.078 6.598,0 10.367,0.942 14.137,1.887 l -6.598,-43.352"
         id="path13"
         style="fill:#ffffff;fill-opacity:1;fill-rule:evenodd;stroke:none" /><path
         d="m 617.238,979.812 c 0,-24.5 12.25,-42.402 39.578,-54.656 21.676,-10.363 24.5,-13.191 24.5,-22.617 0,-12.246 -9.421,-17.902 -30.152,-17.902 -15.078,0 -29.215,2.824 -46.18,8.48 l -7.535,-46.176 2.824,0 9.426,-1.886 c 2.828,-0.942 7.539,-1.879 13.196,-1.879 12.246,-0.946 22.613,-1.887 29.21,-1.887 54.657,0 80.098,20.731 80.098,65.961 0,27.328 -10.363,43.352 -36.75,55.602 -21.676,9.421 -24.5,12.25 -24.5,20.73 0,11.309 8.481,16.968 25.442,16.968 10.367,0 24.5,-1.89 37.695,-3.777 l 7.539,46.177 c -13.195,1.89 -33.926,3.77 -46.176,3.77 -58.426,0 -78.215,-30.16 -78.215,-66.908"
         id="path14"
         style="fill:#ffffff;fill-opacity:1;fill-rule:evenodd;stroke:none" /><path
         d="m 1683.98,844.113 -49.94,0 2.82,19.789 c -14.14,-15.078 -29.22,-21.672 -48.06,-21.672 -37.69,0 -63.14,32.04 -63.14,81.985 0,65.965 38.64,121.565 84.82,121.565 20.72,0 35.8,-8.48 49.94,-27.33 l 11.31,69.73 51.82,0 -39.57,-244.067 z m -77.28,47.121 c 24.5,0 41.47,27.328 41.47,66.907 0,24.5 -9.42,38.632 -27.33,38.632 -23.56,0 -40.52,-27.324 -40.52,-66.906 0,-25.441 8.48,-38.633 26.38,-38.633"
         id="path15"
         style="fill:#ffffff;fill-opacity:1;fill-rule:evenodd;stroke:none" /><path
         d="m 977.215,848.824 c -17.903,-5.648 -34.867,-8.48 -53.715,-8.48 -58.422,0 -88.578,31.101 -88.578,88.586 0,68.789 38.637,118.73 91.406,118.73 42.406,0 69.734,-28.27 69.734,-72.558 0,-14.133 -1.886,-28.27 -5.656,-49.004 l -103.656,0 c -0.945,-2.825 -0.945,-3.766 -0.945,-5.653 0,-22.617 15.078,-34.867 46.179,-34.867 17.903,0 34.864,3.77 53.711,12.25 l -8.48,-49.004 z M 948,966.621 c 0,3.77 0,7.539 0,10.367 0,16.016 -8.48,25.442 -24.5,25.442 -16.016,0 -28.27,-13.192 -32.98,-35.809 l 57.48,0"
         id="path16"
         style="fill:#ffffff;fill-opacity:1;fill-rule:evenodd;stroke:none" /><path
         d="m 419.344,844.113 -51.828,0 30.156,187.527 -66.91,-187.527 -35.805,0 -3.773,186.587 -32.039,-186.587 -48.059,0 40.523,244.067 74.442,0 2.828,-150.77 49.945,150.77 81.043,0 -40.523,-244.067"
         id="path17"
         style="fill:#ffffff;fill-opacity:1;fill-rule:evenodd;stroke:none" /><path
         d="m 548.445,932.695 c -5.652,0.946 -8.48,0.946 -12.25,0.946 -29.211,0 -44.289,-10.368 -44.289,-30.157 0,-12.25 7.539,-20.734 18.844,-20.734 21.68,0 36.754,20.734 37.695,49.945 z m 37.696,-88.582 -43.348,0 0.941,20.735 c -13.191,-16.024 -30.152,-23.559 -54.656,-23.559 -28.269,0 -47.117,21.676 -47.117,53.715 0,48.058 32.984,76.328 91.406,76.328 5.656,0 13.195,0 20.735,-0.941 1.886,5.656 1.886,8.48 1.886,12.25 0,13.195 -8.484,17.909 -32.984,17.909 -15.078,0 -32.043,-1.89 -43.348,-5.659 l -7.543,-1.887 -4.711,-0.942 7.543,44.298 c 26.383,7.53 43.348,10.36 62.196,10.36 45.23,0 68.789,-19.79 68.789,-57.482 0,-10.367 -0.946,-17.906 -4.711,-39.582 l -10.367,-70.676 -1.883,-12.246 -0.946,-10.367 -0.941,-6.597 -0.941,-5.657"
         id="path18"
         style="fill:#ffffff;fill-opacity:1;fill-rule:evenodd;stroke:none" /><path
         d="m 1370.17,932.695 c -5.65,0.946 -8.48,0.946 -12.24,0.946 -29.22,0 -44.3,-10.368 -44.3,-30.157 0,-12.25 7.54,-20.734 18.85,-20.734 20.73,0 36.75,20.734 37.69,49.945 z m 37.7,-88.582 -43.35,0 0.94,20.735 c -13.19,-16.024 -31.09,-23.559 -54.65,-23.559 -28.27,0 -48.06,21.676 -48.06,53.715 0,48.058 33.92,76.328 92.35,76.328 5.65,0 13.19,0 20.73,-0.941 1.88,5.656 1.88,8.48 1.88,12.25 0,13.195 -8.48,17.909 -32.98,17.909 -15.08,0 -32.04,-1.89 -43.35,-5.659 l -7.54,-1.887 -4.71,-0.942 7.54,44.298 c 26.38,7.53 43.35,10.36 62.2,10.36 45.23,0 68.79,-19.79 68.79,-57.482 0,-10.367 -0.95,-17.906 -4.71,-39.582 l -10.37,-70.676 -1.88,-12.246 -1.89,-10.367 -0.94,-6.597 0,-5.657"
         id="path19"
         style="fill:#ffffff;fill-opacity:1;fill-rule:evenodd;stroke:none" /><path
         d="m 1547.34,1043.89 c -0.95,0.95 -2.83,0.95 -4.72,0.95 -16.96,0 -27.32,-8.48 -43.34,-32.04 l 4.71,30.15 -47.12,0 -32.04,-198.837 52.78,0 c 17.9,121.567 23.55,142.297 48.05,142.297 1.89,0 1.89,0 3.77,0 4.71,23.56 11.31,41.47 19.79,57.48 l -1.88,0"
         id="path20"
         style="fill:#ffffff;fill-opacity:1;fill-rule:evenodd;stroke:none" /></g></g></svg>
